<?xml version="1.0" encoding="UTF-8"?>
<!DOCTYPE svg PUBLIC "-//W3C//DTD SVG 1.1//EN" "http://www.w3.org/Graphics/SVG/1.1/DTD/svg11.dtd">
<svg xmlns="http://www.w3.org/2000/svg" version="1.1" width="50px" height="50px" style="shape-rendering:geometricPrecision; text-rendering:geometricPrecision; image-rendering:optimizeQuality; fill-rule:evenodd; clip-rule:evenodd" xmlns:xlink="http://www.w3.org/1999/xlink">
<g><path style="opacity:1" fill="#e85e59" d="M 32.5,4.5 C 35.3962,3.22482 38.3962,3.22482 41.5,4.5C 41.5,5.16667 41.5,5.83333 41.5,6.5C 38.9991,6.51092 38.8324,7.17759 41,8.5C 41.4955,10.4727 41.6621,12.4727 41.5,14.5C 41.1667,14.5 40.8333,14.5 40.5,14.5C 41.5,9.5 39.5,7.5 34.5,8.5C 35.8333,7.83333 37.1667,7.16667 38.5,6.5C 36.7857,5.26162 34.7857,4.59495 32.5,4.5 Z"/></g>
<g><path style="opacity:0.91" fill="#d95e60" d="M 32.5,4.5 C 32.1667,5.16667 31.8333,5.83333 31.5,6.5C 30.8333,6.5 30.1667,6.5 29.5,6.5C 29.9731,5.09368 30.9731,4.42702 32.5,4.5 Z"/></g>
<g><path style="opacity:1" fill="#df0816" d="M 32.5,4.5 C 34.7857,4.59495 36.7857,5.26162 38.5,6.5C 36.5853,6.21552 34.9187,6.54885 33.5,7.5C 32.8333,7.5 32.1667,7.5 31.5,7.5C 31.5,7.16667 31.5,6.83333 31.5,6.5C 31.8333,5.83333 32.1667,5.16667 32.5,4.5 Z"/></g>
<g><path style="opacity:0.231" fill="#f3909b" d="M 41.5,4.5 C 42.5,4.83333 43.1667,5.5 43.5,6.5C 42.8333,6.5 42.1667,6.5 41.5,6.5C 41.5,5.83333 41.5,5.16667 41.5,4.5 Z"/></g>
<g><path style="opacity:1" fill="#c92027" d="M 38.5,6.5 C 37.1667,7.16667 35.8333,7.83333 34.5,8.5C 34.1667,8.5 33.8333,8.5 33.5,8.5C 33.5,8.16667 33.5,7.83333 33.5,7.5C 34.9187,6.54885 36.5853,6.21552 38.5,6.5 Z"/></g>
<g><path style="opacity:0.965" fill="#e4686b" d="M 29.5,6.5 C 29.5,7.16667 29.5,7.83333 29.5,8.5C 28.8333,8.5 28.5,8.83333 28.5,9.5C 27.8333,9.5 27.1667,9.5 26.5,9.5C 27.1667,8.16667 28.1667,7.16667 29.5,6.5 Z"/></g>
<g><path style="opacity:1" fill="#d5091d" d="M 29.5,6.5 C 30.1667,6.5 30.8333,6.5 31.5,6.5C 31.5,6.83333 31.5,7.16667 31.5,7.5C 30.8333,7.5 30.5,7.83333 30.5,8.5C 30.1667,8.5 29.8333,8.5 29.5,8.5C 29.5,7.83333 29.5,7.16667 29.5,6.5 Z"/></g>
<g><path style="opacity:1" fill="#d80a1d" d="M 41.5,6.5 C 42.1667,6.5 42.8333,6.5 43.5,6.5C 43.5,7.5 43.5,8.5 43.5,9.5C 42.596,10.209 42.2627,11.209 42.5,12.5C 42.5,13.1667 42.5,13.8333 42.5,14.5C 42.1667,14.5 41.8333,14.5 41.5,14.5C 41.6621,12.4727 41.4955,10.4727 41,8.5C 38.8324,7.17759 38.9991,6.51092 41.5,6.5 Z"/></g>
<g><path style="opacity:1" fill="#e24244" d="M 31.5,7.5 C 32.1667,7.5 32.8333,7.5 33.5,7.5C 33.5,7.83333 33.5,8.16667 33.5,8.5C 32.8333,9.83333 31.8333,10.8333 30.5,11.5C 30.5,11.1667 30.5,10.8333 30.5,10.5C 30.5,9.83333 30.5,9.16667 30.5,8.5C 30.5,7.83333 30.8333,7.5 31.5,7.5 Z"/></g>
<g><path style="opacity:1" fill="#d45957" d="M 43.5,6.5 C 44.6737,7.51369 45.3404,8.84702 45.5,10.5C 45.1667,10.5 44.8333,10.5 44.5,10.5C 44.5,9.83333 44.1667,9.5 43.5,9.5C 43.5,8.5 43.5,7.5 43.5,6.5 Z"/></g>
<g><path style="opacity:1" fill="#de041c" d="M 29.5,8.5 C 29.8333,8.5 30.1667,8.5 30.5,8.5C 30.5,9.16667 30.5,9.83333 30.5,10.5C 29.8333,10.5 29.1667,10.5 28.5,10.5C 28.5,10.1667 28.5,9.83333 28.5,9.5C 28.5,8.83333 28.8333,8.5 29.5,8.5 Z"/></g>
<g><path style="opacity:0.965" fill="#e37070" d="M 26.5,9.5 C 26.5,10.1667 26.5,10.8333 26.5,11.5C 25.8333,11.5 25.1667,11.5 24.5,11.5C 24.8333,10.5 25.5,9.83333 26.5,9.5 Z"/></g>
<g><path style="opacity:1" fill="#d0071c" d="M 26.5,9.5 C 27.1667,9.5 27.8333,9.5 28.5,9.5C 28.5,9.83333 28.5,10.1667 28.5,10.5C 27.8333,10.5 27.5,10.8333 27.5,11.5C 27.1667,11.5 26.8333,11.5 26.5,11.5C 26.5,10.8333 26.5,10.1667 26.5,9.5 Z"/></g>
<g><path style="opacity:1" fill="#de4241" d="M 28.5,10.5 C 29.1667,10.5 29.8333,10.5 30.5,10.5C 30.5,10.8333 30.5,11.1667 30.5,11.5C 29.8333,12.8333 28.8333,13.8333 27.5,14.5C 27.5,13.5 27.5,12.5 27.5,11.5C 27.5,10.8333 27.8333,10.5 28.5,10.5 Z"/></g>
<g><path style="opacity:1" fill="#e5031e" d="M 43.5,9.5 C 44.1667,9.5 44.5,9.83333 44.5,10.5C 44.5,11.1667 44.5,11.8333 44.5,12.5C 43.8333,12.5 43.1667,12.5 42.5,12.5C 42.2627,11.209 42.596,10.209 43.5,9.5 Z"/></g>
<g><path style="opacity:1" fill="#d1393c" d="M 24.5,11.5 C 25.1667,11.5 25.8333,11.5 26.5,11.5C 26.1667,12.1667 25.8333,12.8333 25.5,13.5C 25.1667,13.5 24.8333,13.5 24.5,13.5C 24.1667,13.5 23.8333,13.5 23.5,13.5C 23.3284,12.5084 23.6618,11.8417 24.5,11.5 Z"/></g>
<g><path style="opacity:1" fill="#db1d27" d="M 26.5,11.5 C 26.8333,11.5 27.1667,11.5 27.5,11.5C 27.5,12.5 27.5,13.5 27.5,14.5C 27.5,14.8333 27.5,15.1667 27.5,15.5C 27.1667,15.5 26.8333,15.5 26.5,15.5C 26.6716,14.5084 26.3382,13.8417 25.5,13.5C 25.8333,12.8333 26.1667,12.1667 26.5,11.5 Z"/></g>
<g><path style="opacity:1" fill="#de0419" d="M 24.5,13.5 C 24.8333,13.5 25.1667,13.5 25.5,13.5C 26.3382,13.8417 26.6716,14.5084 26.5,15.5C 26.44,16.0431 26.1067,16.3764 25.5,16.5C 24.6143,15.675 24.281,14.675 24.5,13.5 Z"/></g>
<g><path style="opacity:1" fill="#e00614" d="M 42.5,12.5 C 43.1667,12.5 43.8333,12.5 44.5,12.5C 44.719,13.675 44.3857,14.675 43.5,15.5C 42.8933,15.3764 42.56,15.0431 42.5,14.5C 42.5,13.8333 42.5,13.1667 42.5,12.5 Z"/></g>
<g><path style="opacity:1" fill="#e7635f" d="M 23.5,13.5 C 23.8333,13.5 24.1667,13.5 24.5,13.5C 24.281,14.675 24.6143,15.675 25.5,16.5C 26.1067,16.3764 26.44,16.0431 26.5,15.5C 26.8333,15.5 27.1667,15.5 27.5,15.5C 27.5,16.1667 27.5,16.8333 27.5,17.5C 26.8333,17.5 26.5,17.8333 26.5,18.5C 25.8333,18.5 25.5,18.8333 25.5,19.5C 25.1667,19.5 24.8333,19.5 24.5,19.5C 23.8505,17.5648 23.5172,15.5648 23.5,13.5 Z"/></g>
<g><path style="opacity:1" fill="#dc444c" d="M 40.5,14.5 C 40.8333,14.5 41.1667,14.5 41.5,14.5C 41.5,15.1667 41.5,15.8333 41.5,16.5C 40.1667,17.1667 39.1667,18.1667 38.5,19.5C 38.1667,19.5 37.8333,19.5 37.5,19.5C 37.1667,19.5 36.8333,19.5 36.5,19.5C 37.8333,17.8333 39.1667,16.1667 40.5,14.5 Z"/></g>
<g><path style="opacity:1" fill="#dd4a46" d="M 44.5,10.5 C 44.8333,10.5 45.1667,10.5 45.5,10.5C 46.075,14.1547 45.075,17.1547 42.5,19.5C 42.7373,18.209 42.404,17.209 41.5,16.5C 41.5,15.8333 41.5,15.1667 41.5,14.5C 41.8333,14.5 42.1667,14.5 42.5,14.5C 42.56,15.0431 42.8933,15.3764 43.5,15.5C 44.3857,14.675 44.719,13.675 44.5,12.5C 44.5,11.8333 44.5,11.1667 44.5,10.5 Z"/></g>
<g><path style="opacity:0.922" fill="#ca575c" d="M 31.5,20.5 C 31.719,19.325 31.3857,18.325 30.5,17.5C 29.8933,17.6236 29.56,17.9569 29.5,18.5C 28.609,19.1098 27.609,19.4431 26.5,19.5C 26.5,19.1667 26.5,18.8333 26.5,18.5C 27.1667,18.5 27.5,18.1667 27.5,17.5C 29.0418,16.6993 30.7085,16.366 32.5,16.5C 32.7678,18.099 32.4345,19.4324 31.5,20.5 Z"/></g>
<g><path style="opacity:1" fill="#c35855" d="M 23.5,13.5 C 23.5172,15.5648 23.8505,17.5648 24.5,19.5C 24.5,19.8333 24.5,20.1667 24.5,20.5C 23.2749,19.8478 22.6083,18.6811 22.5,17C 22.5143,15.6153 22.8476,14.4486 23.5,13.5 Z"/></g>
<g><path style="opacity:1" fill="#e13934" d="M 41.5,16.5 C 42.404,17.209 42.7373,18.209 42.5,19.5C 42.1667,20.5 41.5,21.1667 40.5,21.5C 40.5,20.1667 39.8333,19.5 38.5,19.5C 39.1667,18.1667 40.1667,17.1667 41.5,16.5 Z"/></g>
<g><path style="opacity:1" fill="#d83433" d="M 29.5,18.5 C 29.56,17.9569 29.8933,17.6236 30.5,17.5C 31.3857,18.325 31.719,19.325 31.5,20.5C 31.5,20.8333 31.5,21.1667 31.5,21.5C 31.1667,21.5 30.8333,21.5 30.5,21.5C 30.7373,20.209 30.404,19.209 29.5,18.5 Z"/></g>
<g><path style="opacity:1" fill="#de3433" d="M 29.5,18.5 C 30.404,19.209 30.7373,20.209 30.5,21.5C 30.5,21.8333 30.5,22.1667 30.5,22.5C 29.8333,22.5 29.5,22.8333 29.5,23.5C 29.1667,23.5 28.8333,23.5 28.5,23.5C 28.7148,21.8212 28.0481,20.8212 26.5,20.5C 26.5,20.1667 26.5,19.8333 26.5,19.5C 27.609,19.4431 28.609,19.1098 29.5,18.5 Z"/></g>
<g><path style="opacity:1" fill="#da0917" d="M 37.5,19.5 C 37.8333,19.5 38.1667,19.5 38.5,19.5C 39.8333,19.5 40.5,20.1667 40.5,21.5C 39.5,21.5 38.5,21.5 37.5,21.5C 37.5,20.8333 37.5,20.1667 37.5,19.5 Z"/></g>
<g><path style="opacity:0.984" fill="#e2595e" d="M 25.5,19.5 C 25.8333,19.5 26.1667,19.5 26.5,19.5C 26.5,19.8333 26.5,20.1667 26.5,20.5C 25.8333,21.5 25.1667,22.5 24.5,23.5C 24.1667,23.5 23.8333,23.5 23.5,23.5C 23.1667,23.5 22.8333,23.5 22.5,23.5C 23.1667,22.5 23.8333,21.5 24.5,20.5C 25.1667,20.5 25.5,20.1667 25.5,19.5 Z"/></g>
<g><path style="opacity:1" fill="#dc272c" d="M 36.5,19.5 C 36.8333,19.5 37.1667,19.5 37.5,19.5C 37.5,20.1667 37.5,20.8333 37.5,21.5C 36.8333,21.5 36.1667,21.5 35.5,21.5C 35.5,21.1667 35.5,20.8333 35.5,20.5C 35.5,19.8333 35.8333,19.5 36.5,19.5 Z"/></g>
<g><path style="opacity:1" fill="#e13333" d="M 26.5,20.5 C 28.0481,20.8212 28.7148,21.8212 28.5,23.5C 28.5,23.8333 28.5,24.1667 28.5,24.5C 27.8333,24.8333 27.1667,25.1667 26.5,25.5C 26.5,24.1667 25.8333,23.5 24.5,23.5C 25.1667,22.5 25.8333,21.5 26.5,20.5 Z"/></g>
<g><path style="opacity:0.733" fill="#f08989" d="M 35.5,20.5 C 35.5,20.8333 35.5,21.1667 35.5,21.5C 34.8333,21.5 34.5,21.8333 34.5,22.5C 33.5084,22.3284 32.8417,22.6618 32.5,23.5C 32.1667,23.5 31.8333,23.5 31.5,23.5C 31.1667,23.5 30.8333,23.5 30.5,23.5C 30.5,23.1667 30.5,22.8333 30.5,22.5C 31.1667,22.5 31.5,22.1667 31.5,21.5C 32.8333,21.1667 34.1667,20.8333 35.5,20.5 Z"/></g>
<g><path style="opacity:1" fill="#e14f4d" d="M 34.5,22.5 C 34.5,21.8333 34.8333,21.5 35.5,21.5C 36.1667,21.5 36.8333,21.5 37.5,21.5C 38.5,21.5 39.5,21.5 40.5,21.5C 39.4154,23.5869 37.7488,24.9202 35.5,25.5C 35.5,25.1667 35.5,24.8333 35.5,24.5C 35.6716,23.5084 35.3382,22.8417 34.5,22.5 Z"/></g>
<g><path style="opacity:1" fill="#e1574e" d="M 14.5,24.5 C 14.5,24.1667 14.5,23.8333 14.5,23.5C 15.5,23.5 16.5,23.5 17.5,23.5C 17.5,24.5 17.5,25.5 17.5,26.5C 17.5,26.8333 17.5,27.1667 17.5,27.5C 16.8333,27.5 16.1667,27.5 15.5,27.5C 17.129,25.8041 16.7957,24.8041 14.5,24.5 Z"/></g>
<g><path style="opacity:1" fill="#d06c67" d="M 13.5,23.5 C 14.4486,22.8476 15.6153,22.5143 17,22.5C 18.6811,22.6083 19.8478,23.2749 20.5,24.5C 19.8333,24.5 19.5,24.8333 19.5,25.5C 18.8333,25.5 18.5,25.8333 18.5,26.5C 18.1667,26.5 17.8333,26.5 17.5,26.5C 17.5,25.5 17.5,24.5 17.5,23.5C 16.5,23.5 15.5,23.5 14.5,23.5C 14.1667,23.5 13.8333,23.5 13.5,23.5 Z"/></g>
<g><path style="opacity:1" fill="#da0c21" d="M 34.5,22.5 C 34.1667,23.1667 33.8333,23.8333 33.5,24.5C 32.8333,24.5 32.5,24.1667 32.5,23.5C 32.8417,22.6618 33.5084,22.3284 34.5,22.5 Z"/></g>
<g><path style="opacity:1" fill="#e3031c" d="M 34.5,22.5 C 35.3382,22.8417 35.6716,23.5084 35.5,24.5C 34.8333,24.5 34.1667,24.5 33.5,24.5C 33.8333,23.8333 34.1667,23.1667 34.5,22.5 Z"/></g>
<g><path style="opacity:1" fill="#ca1928" d="M 13.5,23.5 C 13.8333,23.5 14.1667,23.5 14.5,23.5C 14.5,23.8333 14.5,24.1667 14.5,24.5C 13.8333,24.8333 13.1667,25.1667 12.5,25.5C 12.5,25.1667 12.5,24.8333 12.5,24.5C 12.5,23.8333 12.8333,23.5 13.5,23.5 Z"/></g>
<g><path style="opacity:0.984" fill="#e1555b" d="M 22.5,23.5 C 22.8333,23.5 23.1667,23.5 23.5,23.5C 23.5,23.8333 23.5,24.1667 23.5,24.5C 22.5,24.8333 21.8333,25.5 21.5,26.5C 20.8333,26.5 20.1667,26.5 19.5,26.5C 19.5,26.1667 19.5,25.8333 19.5,25.5C 20.1667,25.5 20.5,25.1667 20.5,24.5C 21.1667,24.1667 21.8333,23.8333 22.5,23.5 Z"/></g>
<g><path style="opacity:1" fill="#e54239" d="M 23.5,23.5 C 23.8333,23.5 24.1667,23.5 24.5,23.5C 25.8333,23.5 26.5,24.1667 26.5,25.5C 25.8333,26.5 25.1667,27.5 24.5,28.5C 24.1667,28.5 23.8333,28.5 23.5,28.5C 23.5,28.1667 23.5,27.8333 23.5,27.5C 23.5,26.5 23.5,25.5 23.5,24.5C 23.5,24.1667 23.5,23.8333 23.5,23.5 Z"/></g>
<g><path style="opacity:1" fill="#ce0e22" d="M 31.5,23.5 C 31.8333,23.5 32.1667,23.5 32.5,23.5C 32.5,24.1667 32.8333,24.5 33.5,24.5C 34.1667,24.5 34.8333,24.5 35.5,24.5C 35.5,24.8333 35.5,25.1667 35.5,25.5C 33.5168,25.8432 32.1834,25.1765 31.5,23.5 Z"/></g>
<g><path style="opacity:0.929" fill="#d85658" d="M 12.5,24.5 C 12.5,24.8333 12.5,25.1667 12.5,25.5C 11.5,25.8333 10.8333,26.5 10.5,27.5C 9.60895,28.1098 8.60895,28.4431 7.5,28.5C 8.58457,26.4131 10.2512,25.0798 12.5,24.5 Z"/></g>
<g><path style="opacity:1" fill="#e02f32" d="M 14.5,24.5 C 16.7957,24.8041 17.129,25.8041 15.5,27.5C 14.5,28.1667 13.5,28.8333 12.5,29.5C 12.5,28.8333 12.5,28.1667 12.5,27.5C 12.5,26.8333 12.5,26.1667 12.5,25.5C 13.1667,25.1667 13.8333,24.8333 14.5,24.5 Z"/></g>
<g><path style="opacity:1" fill="#dd041e" d="M 23.5,24.5 C 23.5,25.5 23.5,26.5 23.5,27.5C 22.5084,27.6716 21.8417,27.3382 21.5,26.5C 21.8333,25.5 22.5,24.8333 23.5,24.5 Z"/></g>
<g><path style="opacity:0.839" fill="#ca7981" d="M 29.5,23.5 C 29.8333,23.5 30.1667,23.5 30.5,23.5C 30.5,24.5 30.5,25.5 30.5,26.5C 29.1667,26.5 28.5,25.8333 28.5,24.5C 29.1667,24.5 29.5,24.1667 29.5,23.5 Z"/></g>
<g><path style="opacity:0.957" fill="#c44a51" d="M 30.5,23.5 C 30.8333,23.5 31.1667,23.5 31.5,23.5C 32.1834,25.1765 33.5168,25.8432 35.5,25.5C 34.0813,26.4511 32.4147,26.7845 30.5,26.5C 30.5,25.5 30.5,24.5 30.5,23.5 Z"/></g>
<g><path style="opacity:1" fill="#d6051b" d="M 12.5,25.5 C 12.5,26.1667 12.5,26.8333 12.5,27.5C 11.8333,27.5 11.1667,27.5 10.5,27.5C 10.8333,26.5 11.5,25.8333 12.5,25.5 Z"/></g>
<g><path style="opacity:0.984" fill="#e26564" d="M 18.5,26.5 C 18.8333,26.5 19.1667,26.5 19.5,26.5C 19.5,27.1667 19.5,27.8333 19.5,28.5C 18.8333,28.5 18.1667,28.5 17.5,28.5C 17.5,28.1667 17.5,27.8333 17.5,27.5C 18.1667,27.5 18.5,27.1667 18.5,26.5 Z"/></g>
<g><path style="opacity:1" fill="#e33f40" d="M 19.5,26.5 C 20.1667,26.5 20.8333,26.5 21.5,26.5C 21.8417,27.3382 22.5084,27.6716 23.5,27.5C 23.5,27.8333 23.5,28.1667 23.5,28.5C 23.5,28.8333 23.5,29.1667 23.5,29.5C 22.8333,29.5 22.5,29.8333 22.5,30.5C 21.8333,30.5 21.5,30.8333 21.5,31.5C 21.1667,31.5 20.8333,31.5 20.5,31.5C 20.7373,30.209 20.404,29.209 19.5,28.5C 19.5,27.8333 19.5,27.1667 19.5,26.5 Z"/></g>
<g><path style="opacity:1" fill="#dd3435" d="M 10.5,27.5 C 11.1667,27.5 11.8333,27.5 12.5,27.5C 12.5,28.1667 12.5,28.8333 12.5,29.5C 11.8333,30.8333 10.8333,31.8333 9.5,32.5C 9.86932,30.0065 9.20266,29.3398 7.5,30.5C 7.5,29.8333 7.5,29.1667 7.5,28.5C 8.60895,28.4431 9.60895,28.1098 10.5,27.5 Z"/></g>
<g><path style="opacity:0.933" fill="#e86f72" d="M 7.5,28.5 C 7.5,29.1667 7.5,29.8333 7.5,30.5C 6.83333,30.5 6.16667,30.5 5.5,30.5C 5.83333,29.5 6.5,28.8333 7.5,28.5 Z"/></g>
<g><path style="opacity:1" fill="#d30d1b" d="M 17.5,28.5 C 18.1667,28.5 18.8333,28.5 19.5,28.5C 20.404,29.209 20.7373,30.209 20.5,31.5C 19.5,31.5 18.5,31.5 17.5,31.5C 17.5,30.5 17.5,29.5 17.5,28.5 Z"/></g>
<g><path style="opacity:0.835" fill="#c6767d" d="M 24.5,28.5 C 25.8333,28.5 26.5,29.1667 26.5,30.5C 25.5,30.5 24.5,30.5 23.5,30.5C 23.5,30.1667 23.5,29.8333 23.5,29.5C 24.1667,29.5 24.5,29.1667 24.5,28.5 Z"/></g>
<g><path style="opacity:1" fill="#dc2227" d="M 9.5,32.5 C 9.16667,33.1667 8.83333,33.8333 8.5,34.5C 7.83333,34.5 7.16667,34.5 6.5,34.5C 6.5,33.8333 6.16667,33.5 5.5,33.5C 5.5,32.5 5.5,31.5 5.5,30.5C 6.16667,30.5 6.83333,30.5 7.5,30.5C 9.20266,29.3398 9.86932,30.0065 9.5,32.5 Z"/></g>
<g><path style="opacity:0.902" fill="#ca5e67" d="M 17.5,28.5 C 17.5,29.5 17.5,30.5 17.5,31.5C 18.5,31.5 19.5,31.5 20.5,31.5C 19.4324,32.4345 18.099,32.7678 16.5,32.5C 16.2322,30.901 16.5655,29.5676 17.5,28.5 Z"/></g>
<g><path style="opacity:0.949" fill="#c44950" d="M 23.5,31.5 C 23.5,31.1667 23.5,30.8333 23.5,30.5C 24.5,30.5 25.5,30.5 26.5,30.5C 26.7845,32.4147 26.4511,34.0813 25.5,35.5C 25.8432,33.5168 25.1765,32.1834 23.5,31.5 Z"/></g>
<g><path style="opacity:0.965" fill="#de575f" d="M 5.5,30.5 C 5.5,31.5 5.5,32.5 5.5,33.5C 4.83333,33.5 4.5,33.8333 4.5,34.5C 4.16667,34.5 3.83333,34.5 3.5,34.5C 3.6596,32.847 4.32627,31.5137 5.5,30.5 Z"/></g>
<g><path style="opacity:0.31" fill="#f49c9e" d="M 22.5,30.5 C 22.8333,30.5 23.1667,30.5 23.5,30.5C 23.5,30.8333 23.5,31.1667 23.5,31.5C 23.5,31.8333 23.5,32.1667 23.5,32.5C 22.8333,32.8333 22.1667,33.1667 21.5,33.5C 21.5,32.8333 21.5,32.1667 21.5,31.5C 22.1667,31.5 22.5,31.1667 22.5,30.5 Z"/></g>
<g><path style="opacity:1" fill="#d63c3c" d="M 23.5,32.5 C 23.5,32.1667 23.5,31.8333 23.5,31.5C 25.1765,32.1834 25.8432,33.5168 25.5,35.5C 25.6716,36.4916 25.3382,37.1583 24.5,37.5C 24.7845,35.5853 24.4511,33.9187 23.5,32.5 Z"/></g>
<g><path style="opacity:1" fill="#e2504d" d="M 23.5,32.5 C 22.5272,34.1494 21.5272,35.816 20.5,37.5C 20.1667,37.5 19.8333,37.5 19.5,37.5C 19.1667,37.5 18.8333,37.5 18.5,37.5C 19.5116,36.1283 20.5116,34.795 21.5,33.5C 22.1667,33.1667 22.8333,32.8333 23.5,32.5 Z"/></g>
<g><path style="opacity:1" fill="#de0618" d="M 5.5,33.5 C 6.16667,33.5 6.5,33.8333 6.5,34.5C 6.5,34.8333 6.5,35.1667 6.5,35.5C 5.56552,36.5676 5.23219,37.901 5.5,39.5C 4.54885,38.0813 4.21552,36.4147 4.5,34.5C 4.5,33.8333 4.83333,33.5 5.5,33.5 Z"/></g>
<g><path style="opacity:1" fill="#e13a39" d="M 23.5,32.5 C 24.4511,33.9187 24.7845,35.5853 24.5,37.5C 23.8333,38.8333 22.8333,39.8333 21.5,40.5C 21.5,40.1667 21.5,39.8333 21.5,39.5C 21.6716,38.5084 21.3382,37.8417 20.5,37.5C 21.5272,35.816 22.5272,34.1494 23.5,32.5 Z"/></g>
<g><path style="opacity:0.902" fill="#dc5b5d" d="M 3.5,34.5 C 3.83333,34.5 4.16667,34.5 4.5,34.5C 4.21552,36.4147 4.54885,38.0813 5.5,39.5C 5.55688,40.609 5.89022,41.609 6.5,42.5C 6.5,42.8333 6.5,43.1667 6.5,43.5C 3.92497,41.1547 2.92497,38.1547 3.5,34.5 Z"/></g>
<g><path style="opacity:0.996" fill="#e86b69" d="M 6.5,34.5 C 7.16667,34.5 7.83333,34.5 8.5,34.5C 7.5,39.5 9.5,41.5 14.5,40.5C 14.5,40.8333 14.5,41.1667 14.5,41.5C 12.8333,41.5 11.1667,41.5 9.5,41.5C 9.16667,41.5 8.83333,41.5 8.5,41.5C 6.91917,39.8583 6.2525,37.8583 6.5,35.5C 6.5,35.1667 6.5,34.8333 6.5,34.5 Z"/></g>
<g><path style="opacity:0.996" fill="#dd484e" d="M 18.5,37.5 C 18.4431,38.609 18.1098,39.609 17.5,40.5C 16.609,41.1098 15.609,41.4431 14.5,41.5C 14.5,41.1667 14.5,40.8333 14.5,40.5C 15.8333,39.5 17.1667,38.5 18.5,37.5 Z"/></g>
<g><path style="opacity:1" fill="#e20213" d="M 19.5,37.5 C 19.8333,37.5 20.1667,37.5 20.5,37.5C 21.3382,37.8417 21.6716,38.5084 21.5,39.5C 20.1667,39.5 19.5,38.8333 19.5,37.5 Z"/></g>
<g><path style="opacity:1" fill="#e1433c" d="M 18.5,37.5 C 18.8333,37.5 19.1667,37.5 19.5,37.5C 19.5,38.8333 20.1667,39.5 21.5,39.5C 21.5,39.8333 21.5,40.1667 21.5,40.5C 20.8333,41.8333 19.8333,42.8333 18.5,43.5C 18.4431,42.391 18.1098,41.391 17.5,40.5C 18.1098,39.609 18.4431,38.609 18.5,37.5 Z"/></g>
<g><path style="opacity:1" fill="#e00316" d="M 6.5,35.5 C 6.2525,37.8583 6.91917,39.8583 8.5,41.5C 8.15829,42.3382 7.49162,42.6716 6.5,42.5C 5.89022,41.609 5.55688,40.609 5.5,39.5C 5.23219,37.901 5.56552,36.5676 6.5,35.5 Z"/></g>
<g><path style="opacity:1" fill="#d62c2d" d="M 17.5,40.5 C 18.1098,41.391 18.4431,42.391 18.5,43.5C 18.1583,44.3382 17.4916,44.6716 16.5,44.5C 16.1667,44.5 15.8333,44.5 15.5,44.5C 15.1788,42.9519 14.1788,42.2852 12.5,42.5C 11.5,42.5 10.5,42.5 9.5,42.5C 9.5,42.1667 9.5,41.8333 9.5,41.5C 11.1667,41.5 12.8333,41.5 14.5,41.5C 15.609,41.4431 16.609,41.1098 17.5,40.5 Z"/></g>
<g><path style="opacity:1" fill="#d51120" d="M 8.5,41.5 C 8.83333,41.5 9.16667,41.5 9.5,41.5C 9.5,41.8333 9.5,42.1667 9.5,42.5C 9.5,42.8333 9.5,43.1667 9.5,43.5C 8.5,43.5 7.5,43.5 6.5,43.5C 6.5,43.1667 6.5,42.8333 6.5,42.5C 7.49162,42.6716 8.15829,42.3382 8.5,41.5 Z"/></g>
<g><path style="opacity:1" fill="#e3021c" d="M 9.5,42.5 C 10.5,42.5 11.5,42.5 12.5,42.5C 12.5,43.1667 12.5,43.8333 12.5,44.5C 11.209,44.7373 10.209,44.404 9.5,43.5C 9.5,43.1667 9.5,42.8333 9.5,42.5 Z"/></g>
<g><path style="opacity:1" fill="#d85453" d="M 6.5,43.5 C 7.5,43.5 8.5,43.5 9.5,43.5C 10.209,44.404 11.209,44.7373 12.5,44.5C 13.5,44.5 14.5,44.5 15.5,44.5C 15.8333,44.5 16.1667,44.5 16.5,44.5C 15.3784,45.1558 14.0451,45.4892 12.5,45.5C 10.1175,45.639 8.11747,44.9723 6.5,43.5 Z"/></g>
<g><path style="opacity:1" fill="#e00516" d="M 12.5,42.5 C 14.1788,42.2852 15.1788,42.9519 15.5,44.5C 14.5,44.5 13.5,44.5 12.5,44.5C 12.5,43.8333 12.5,43.1667 12.5,42.5 Z"/></g>
</svg>
